<?xml version="1.0" encoding="UTF-8"?>
<svg width="323px" height="294px" viewBox="0 0 323 294" version="1.1" xmlns="http://www.w3.org/2000/svg" xmlns:xlink="http://www.w3.org/1999/xlink">
    <!-- Generator: Sketch 63.1 (92452) - https://sketch.com -->
    <title>语音验证码</title>
    <desc>Created with Sketch.</desc>
    <defs>
        <linearGradient x1="50%" y1="0%" x2="50%" y2="100%" id="linearGradient-1">
            <stop stop-color="#59D0FC" offset="0%"></stop>
            <stop stop-color="#4B79FF" offset="100%"></stop>
        </linearGradient>
        <linearGradient x1="50%" y1="0%" x2="50%" y2="100%" id="linearGradient-2">
            <stop stop-color="#59D0FC" offset="0%"></stop>
            <stop stop-color="#4B79FF" offset="100%"></stop>
        </linearGradient>
        <linearGradient x1="50%" y1="0%" x2="50%" y2="100%" id="linearGradient-3">
            <stop stop-color="#59D0FC" offset="0%"></stop>
            <stop stop-color="#4B79FF" offset="100%"></stop>
        </linearGradient>
        <linearGradient x1="50%" y1="0%" x2="50%" y2="100%" id="linearGradient-4">
            <stop stop-color="#59D0FC" offset="0%"></stop>
            <stop stop-color="#4B79FF" offset="100%"></stop>
        </linearGradient>
        <linearGradient x1="50%" y1="0%" x2="50%" y2="100%" id="linearGradient-5">
            <stop stop-color="#59D0FC" offset="0%"></stop>
            <stop stop-color="#4B79FF" offset="100%"></stop>
        </linearGradient>
        <linearGradient x1="50%" y1="0%" x2="50%" y2="100%" id="linearGradient-6">
            <stop stop-color="#59D0FC" offset="0%"></stop>
            <stop stop-color="#4B79FF" offset="100%"></stop>
        </linearGradient>
    </defs>
    <g id="中昱购买官网" stroke="none" stroke-width="1" fill="none" fill-rule="evenodd">
        <g id="画板" transform="translate(-350.000000, -2287.000000)">
            <g id="语音验证码" transform="translate(351.000000, 2288.000000)">
                <path d="M160.5,229 C249.141702,229 321,191.391919 321,145 C321,98.608081 249.141702,61 160.5,61 C71.8582977,61 0,98.608081 0,145 C0,191.391919 71.8582977,229 160.5,229 Z" id="椭圆形" stroke="url(#linearGradient-1)" stroke-width="2" stroke-dasharray="8"></path>
                <path d="M160.5,220 C244.17114,220 312,186.645214 312,145.5 C312,104.354786 244.17114,71 160.5,71 C76.8288604,71 9,104.354786 9,145.5 C9,186.645214 76.8288604,220 160.5,220 Z" id="椭圆形复制-12" fill="url(#linearGradient-2)" opacity="0.122767857"></path>
                <ellipse id="椭圆形" fill="url(#linearGradient-3)" cx="159" cy="144.5" rx="24" ry="24.5"></ellipse>
                <path d="M88.4198342,186.937436 C131.442544,264.314548 199.486162,308.712777 240.399508,286.103655 C281.312854,263.494534 279.602876,182.439676 236.580166,105.062564 C193.557456,27.6854519 125.513838,-16.7127767 84.6004922,5.89634487 C43.6871464,28.5054665 45.397124,109.560324 88.4198342,186.937436 Z" id="椭圆形复制-10" stroke="url(#linearGradient-4)" stroke-width="2" fill-opacity="0.05" fill="url(#linearGradient-4)" stroke-dasharray="8"></path>
                <path d="M235.580166,186.937436 C192.557456,264.314548 124.513838,308.712777 83.6004922,286.103655 C42.6871464,263.494534 44.397124,182.439676 87.4198342,105.062564 C130.442544,27.6854519 198.486162,-16.7127767 239.399508,5.89634487 C280.312854,28.5054665 278.602876,109.560324 235.580166,186.937436 Z" id="椭圆形复制-11" stroke="url(#linearGradient-4)" stroke-width="2" fill-opacity="0.05" fill="url(#linearGradient-4)" stroke-dasharray="8"></path>
                <path d="M14,38 L85,38 C87.7614237,38 90,40.2385763 90,43 L90,96.4084674 C90,99.1698911 87.7614237,101.408467 85,101.408467 L62.3004805,101.408467 L62.3004805,101.408467 L62.3004805,114 L40.2337537,101.408467 L14,101.408467 C11.2385763,101.408467 9,99.1698911 9,96.4084674 L9,43 C9,40.2385763 11.2385763,38 14,38 Z" id="矩形" fill="url(#linearGradient-5)"></path>
                <path d="M206,88 L300,88 C302.761424,88 305,90.2385763 305,93 L305,164.76355 C305,167.524974 302.761424,169.76355 300,169.76355 L269.435185,169.76355 L269.435185,169.76355 L269.435185,186 L241.102597,169.76355 L206,169.76355 C203.238576,169.76355 201,167.524974 201,164.76355 L201,93 C201,90.2385763 203.238576,88 206,88 Z" id="矩形复制-6" fill="url(#linearGradient-6)" transform="translate(253.000000, 137.000000) scale(-1, 1) translate(-253.000000, -137.000000) "></path>
                <g id="语音-(4)" transform="translate(35.000000, 50.000000)" fill="#B6E8FD" fill-rule="nonzero">
                    <path d="M14.6871268,29.4480354 C19.0675811,29.4480354 22.6136673,25.9019493 22.6136673,21.521495 L22.6136673,8.38017498 C22.6136673,3.99972066 19.0675811,0.453634504 14.6871268,0.453634504 C10.3066725,0.453634504 6.76062929,3.99972066 6.76062929,8.38017498 L6.76062929,21.521495 C6.86491457,25.9019493 10.3066725,29.4480354 14.6871268,29.4480354 Z M26.9941216,15.7852031 C26.1597534,15.7852031 25.4296276,16.515243 25.4296276,17.3496542 L25.4296276,21.6258232 C25.4296276,27.5706856 20.6320322,32.368324 14.6871268,32.368324 C8.74222144,32.368324 3.94462602,27.5706856 3.94462602,21.6258232 L3.94462602,16.9324701 C3.94462602,16.0981019 3.21454314,15.368019 2.38013201,15.368019 C1.54572088,15.368019 0.815723938,16.098059 0.815723938,16.9324701 L0.815723938,21.6258232 C0.815723938,28.7179525 6.23911697,34.6628579 13.1226758,35.3929408 L13.1226758,38.7304134 L7.90785328,38.7304134 C7.07348513,38.7304134 6.34340225,39.4604533 6.34340225,40.2948645 C6.34340225,41.1292756 7.07348513,41.8593155 7.90789625,41.8593155 L21.4664003,41.8593155 C22.3007685,41.8593155 23.0308514,41.1292326 23.0308514,40.2948645 C23.0308514,39.4604963 22.3008114,38.7304134 21.4664003,38.7304134 L16.2515778,38.7304134 L16.2515778,35.3929408 C23.1351796,34.6628579 28.5585726,28.7179525 28.5585726,21.6258232 L28.5585726,17.3496542 C28.5585726,16.4110007 27.8284897,15.7852031 26.9940786,15.7852031 L26.9941216,15.7852031 Z" id="形状"></path>
                </g>
                <g id="验证码" transform="translate(233.000000, 103.000000)" fill="#B6E8FD" fill-rule="nonzero">
                    <path d="M39.3947893,6.05783829 C38.9453303,6.07555127 38.5017084,6.0814556 38.0697608,6.0814556 C26.6931948,6.0814556 21.6732631,1.20448247 21.6324032,1.16315219 L20.5,0 L19.3559226,1.16315219 C19.3092255,1.21629112 14.3943622,6.0814556 2.92440205,6.0814556 C2.49245444,6.0814556 2.04883257,6.07555127 1.59937358,6.05783829 L0,6.00469936 L0,28.1104952 C0,33.8967345 2.06634396,42.3399205 19.9396355,48.7992529 L20.5,49 L21.0603645,48.7992529 C38.933656,42.3399205 41,33.8967345 41,28.1104952 L41,6.00469936 L39.3947893,6.05783829 M18.7371868,33.8258826 L8.44048975,24.7568382 L11.1722665,22.5545246 L16.6474943,26.5694662 C16.6474943,26.5694662 24.2065774,18.7934691 31.5088269,15.1564044 L32.5536731,16.3254609 C32.5536731,16.3254609 23.4302392,23.847572 18.7371868,33.8258826" id="形状"></path>
                </g>
            </g>
        </g>
    </g>
</svg>